<mxfile host="app.diagrams.net" modified="2023-08-22T17:32:13.130Z" agent="Mozilla/5.0 (Windows NT 10.0; Win64; x64) AppleWebKit/537.36 (KHTML, like Gecko) Chrome/114.0.0.0 Safari/537.36" etag="P4mXUxbkCVV6B_-_RPeM" version="21.6.9" type="device">
  <diagram name="Страница — 1" id="1WF4-syRbzQyHkfDTN4-">
    <mxGraphModel dx="1050" dy="581" grid="1" gridSize="10" guides="1" tooltips="1" connect="1" arrows="1" fold="1" page="1" pageScale="1" pageWidth="827" pageHeight="1169" math="0" shadow="0">
      <root>
        <mxCell id="0" />
        <mxCell id="1" parent="0" />
        <mxCell id="Uvm_3Z7u6msLeB1A8Q9c-4" style="edgeStyle=orthogonalEdgeStyle;rounded=0;orthogonalLoop=1;jettySize=auto;html=1;entryX=0.5;entryY=0;entryDx=0;entryDy=0;" edge="1" parent="1" source="Uvm_3Z7u6msLeB1A8Q9c-1" target="Uvm_3Z7u6msLeB1A8Q9c-2">
          <mxGeometry relative="1" as="geometry" />
        </mxCell>
        <mxCell id="Uvm_3Z7u6msLeB1A8Q9c-1" value="Begin" style="ellipse;whiteSpace=wrap;html=1;" vertex="1" parent="1">
          <mxGeometry x="350" y="50" width="100" height="40" as="geometry" />
        </mxCell>
        <mxCell id="Uvm_3Z7u6msLeB1A8Q9c-7" value="" style="edgeStyle=orthogonalEdgeStyle;rounded=0;orthogonalLoop=1;jettySize=auto;html=1;" edge="1" parent="1" source="Uvm_3Z7u6msLeB1A8Q9c-2" target="Uvm_3Z7u6msLeB1A8Q9c-6">
          <mxGeometry relative="1" as="geometry" />
        </mxCell>
        <mxCell id="Uvm_3Z7u6msLeB1A8Q9c-2" value="Size_Array&lt;br&gt;Array" style="shape=parallelogram;perimeter=parallelogramPerimeter;whiteSpace=wrap;html=1;fixedSize=1;" vertex="1" parent="1">
          <mxGeometry x="340" y="120" width="120" height="60" as="geometry" />
        </mxCell>
        <mxCell id="Uvm_3Z7u6msLeB1A8Q9c-20" style="edgeStyle=orthogonalEdgeStyle;rounded=0;orthogonalLoop=1;jettySize=auto;html=1;entryX=0.5;entryY=0;entryDx=0;entryDy=0;" edge="1" parent="1" source="Uvm_3Z7u6msLeB1A8Q9c-6" target="Uvm_3Z7u6msLeB1A8Q9c-8">
          <mxGeometry relative="1" as="geometry" />
        </mxCell>
        <mxCell id="Uvm_3Z7u6msLeB1A8Q9c-6" value="count = 0" style="whiteSpace=wrap;html=1;" vertex="1" parent="1">
          <mxGeometry x="340" y="210" width="120" height="60" as="geometry" />
        </mxCell>
        <mxCell id="Uvm_3Z7u6msLeB1A8Q9c-10" value="" style="edgeStyle=orthogonalEdgeStyle;rounded=0;orthogonalLoop=1;jettySize=auto;html=1;" edge="1" parent="1" source="Uvm_3Z7u6msLeB1A8Q9c-8" target="Uvm_3Z7u6msLeB1A8Q9c-9">
          <mxGeometry relative="1" as="geometry" />
        </mxCell>
        <mxCell id="Uvm_3Z7u6msLeB1A8Q9c-23" style="edgeStyle=orthogonalEdgeStyle;rounded=0;orthogonalLoop=1;jettySize=auto;html=1;entryX=0.5;entryY=0;entryDx=0;entryDy=0;exitX=1;exitY=0.5;exitDx=0;exitDy=0;" edge="1" parent="1" source="Uvm_3Z7u6msLeB1A8Q9c-8" target="Uvm_3Z7u6msLeB1A8Q9c-21">
          <mxGeometry relative="1" as="geometry">
            <Array as="points">
              <mxPoint x="530" y="325" />
              <mxPoint x="530" y="600" />
              <mxPoint x="400" y="600" />
            </Array>
          </mxGeometry>
        </mxCell>
        <mxCell id="Uvm_3Z7u6msLeB1A8Q9c-8" value="i=0;Size_Array;1" style="shape=hexagon;perimeter=hexagonPerimeter2;whiteSpace=wrap;html=1;fixedSize=1;" vertex="1" parent="1">
          <mxGeometry x="340" y="300" width="120" height="50" as="geometry" />
        </mxCell>
        <mxCell id="Uvm_3Z7u6msLeB1A8Q9c-15" value="" style="edgeStyle=orthogonalEdgeStyle;rounded=0;orthogonalLoop=1;jettySize=auto;html=1;" edge="1" parent="1" source="Uvm_3Z7u6msLeB1A8Q9c-9" target="Uvm_3Z7u6msLeB1A8Q9c-14">
          <mxGeometry relative="1" as="geometry" />
        </mxCell>
        <mxCell id="Uvm_3Z7u6msLeB1A8Q9c-16" value="YES" style="edgeLabel;html=1;align=center;verticalAlign=middle;resizable=0;points=[];" vertex="1" connectable="0" parent="Uvm_3Z7u6msLeB1A8Q9c-15">
          <mxGeometry x="-0.34" y="2" relative="1" as="geometry">
            <mxPoint as="offset" />
          </mxGeometry>
        </mxCell>
        <mxCell id="Uvm_3Z7u6msLeB1A8Q9c-18" style="edgeStyle=orthogonalEdgeStyle;rounded=0;orthogonalLoop=1;jettySize=auto;html=1;" edge="1" parent="1" source="Uvm_3Z7u6msLeB1A8Q9c-9">
          <mxGeometry relative="1" as="geometry">
            <mxPoint x="290" y="430" as="targetPoint" />
          </mxGeometry>
        </mxCell>
        <mxCell id="Uvm_3Z7u6msLeB1A8Q9c-19" value="NO" style="edgeLabel;html=1;align=center;verticalAlign=middle;resizable=0;points=[];" vertex="1" connectable="0" parent="Uvm_3Z7u6msLeB1A8Q9c-18">
          <mxGeometry x="-0.0071" y="1" relative="1" as="geometry">
            <mxPoint x="1" as="offset" />
          </mxGeometry>
        </mxCell>
        <mxCell id="Uvm_3Z7u6msLeB1A8Q9c-9" value="Array[i]&amp;lt;= 3?" style="rhombus;whiteSpace=wrap;html=1;" vertex="1" parent="1">
          <mxGeometry x="360" y="390" width="80" height="80" as="geometry" />
        </mxCell>
        <mxCell id="Uvm_3Z7u6msLeB1A8Q9c-17" style="edgeStyle=orthogonalEdgeStyle;rounded=0;orthogonalLoop=1;jettySize=auto;html=1;entryX=0;entryY=0.5;entryDx=0;entryDy=0;exitX=0;exitY=0.5;exitDx=0;exitDy=0;" edge="1" parent="1" source="Uvm_3Z7u6msLeB1A8Q9c-14" target="Uvm_3Z7u6msLeB1A8Q9c-8">
          <mxGeometry relative="1" as="geometry">
            <Array as="points">
              <mxPoint x="290" y="540" />
              <mxPoint x="290" y="325" />
            </Array>
          </mxGeometry>
        </mxCell>
        <mxCell id="Uvm_3Z7u6msLeB1A8Q9c-14" value="count=count+1" style="whiteSpace=wrap;html=1;" vertex="1" parent="1">
          <mxGeometry x="340" y="510" width="120" height="60" as="geometry" />
        </mxCell>
        <mxCell id="Uvm_3Z7u6msLeB1A8Q9c-25" style="edgeStyle=orthogonalEdgeStyle;rounded=0;orthogonalLoop=1;jettySize=auto;html=1;entryX=0.5;entryY=0;entryDx=0;entryDy=0;" edge="1" parent="1" source="Uvm_3Z7u6msLeB1A8Q9c-21" target="Uvm_3Z7u6msLeB1A8Q9c-24">
          <mxGeometry relative="1" as="geometry" />
        </mxCell>
        <mxCell id="Uvm_3Z7u6msLeB1A8Q9c-21" value="New_size_array=count&lt;br&gt;New_array&lt;br&gt;index=0" style="whiteSpace=wrap;html=1;" vertex="1" parent="1">
          <mxGeometry x="330" y="650" width="140" height="60" as="geometry" />
        </mxCell>
        <mxCell id="Uvm_3Z7u6msLeB1A8Q9c-27" value="" style="edgeStyle=orthogonalEdgeStyle;rounded=0;orthogonalLoop=1;jettySize=auto;html=1;" edge="1" parent="1" source="Uvm_3Z7u6msLeB1A8Q9c-24" target="Uvm_3Z7u6msLeB1A8Q9c-26">
          <mxGeometry relative="1" as="geometry" />
        </mxCell>
        <mxCell id="Uvm_3Z7u6msLeB1A8Q9c-29" style="edgeStyle=orthogonalEdgeStyle;rounded=0;orthogonalLoop=1;jettySize=auto;html=1;entryX=0;entryY=0.5;entryDx=0;entryDy=0;" edge="1" parent="1" source="Uvm_3Z7u6msLeB1A8Q9c-24" target="Uvm_3Z7u6msLeB1A8Q9c-28">
          <mxGeometry relative="1" as="geometry" />
        </mxCell>
        <mxCell id="Uvm_3Z7u6msLeB1A8Q9c-24" value="i=0;Size_Array;1" style="shape=hexagon;perimeter=hexagonPerimeter2;whiteSpace=wrap;html=1;fixedSize=1;" vertex="1" parent="1">
          <mxGeometry x="340" y="740" width="120" height="50" as="geometry" />
        </mxCell>
        <mxCell id="Uvm_3Z7u6msLeB1A8Q9c-33" value="" style="edgeStyle=orthogonalEdgeStyle;rounded=0;orthogonalLoop=1;jettySize=auto;html=1;" edge="1" parent="1" source="Uvm_3Z7u6msLeB1A8Q9c-26" target="Uvm_3Z7u6msLeB1A8Q9c-32">
          <mxGeometry relative="1" as="geometry" />
        </mxCell>
        <mxCell id="Uvm_3Z7u6msLeB1A8Q9c-35" value="YES" style="edgeLabel;html=1;align=center;verticalAlign=middle;resizable=0;points=[];" vertex="1" connectable="0" parent="Uvm_3Z7u6msLeB1A8Q9c-33">
          <mxGeometry x="-0.272" y="1" relative="1" as="geometry">
            <mxPoint as="offset" />
          </mxGeometry>
        </mxCell>
        <mxCell id="Uvm_3Z7u6msLeB1A8Q9c-37" value="NO" style="edgeStyle=orthogonalEdgeStyle;rounded=0;orthogonalLoop=1;jettySize=auto;html=1;" edge="1" parent="1" source="Uvm_3Z7u6msLeB1A8Q9c-26">
          <mxGeometry relative="1" as="geometry">
            <mxPoint x="290" y="870" as="targetPoint" />
          </mxGeometry>
        </mxCell>
        <mxCell id="Uvm_3Z7u6msLeB1A8Q9c-26" value="Array[i]&amp;lt;= 3?" style="rhombus;whiteSpace=wrap;html=1;" vertex="1" parent="1">
          <mxGeometry x="360" y="830" width="80" height="80" as="geometry" />
        </mxCell>
        <mxCell id="Uvm_3Z7u6msLeB1A8Q9c-31" value="" style="edgeStyle=orthogonalEdgeStyle;rounded=0;orthogonalLoop=1;jettySize=auto;html=1;" edge="1" parent="1" source="Uvm_3Z7u6msLeB1A8Q9c-28" target="Uvm_3Z7u6msLeB1A8Q9c-30">
          <mxGeometry relative="1" as="geometry" />
        </mxCell>
        <mxCell id="Uvm_3Z7u6msLeB1A8Q9c-28" value="New_array" style="shape=document;whiteSpace=wrap;html=1;boundedLbl=1;" vertex="1" parent="1">
          <mxGeometry x="550" y="735" width="120" height="60" as="geometry" />
        </mxCell>
        <mxCell id="Uvm_3Z7u6msLeB1A8Q9c-30" value="End" style="ellipse;whiteSpace=wrap;html=1;" vertex="1" parent="1">
          <mxGeometry x="720" y="742.5" width="80" height="45" as="geometry" />
        </mxCell>
        <mxCell id="Uvm_3Z7u6msLeB1A8Q9c-34" style="edgeStyle=orthogonalEdgeStyle;rounded=0;orthogonalLoop=1;jettySize=auto;html=1;entryX=0;entryY=0.5;entryDx=0;entryDy=0;exitX=0;exitY=0.5;exitDx=0;exitDy=0;" edge="1" parent="1" source="Uvm_3Z7u6msLeB1A8Q9c-32" target="Uvm_3Z7u6msLeB1A8Q9c-24">
          <mxGeometry relative="1" as="geometry">
            <Array as="points">
              <mxPoint x="290" y="990" />
              <mxPoint x="290" y="765" />
            </Array>
          </mxGeometry>
        </mxCell>
        <mxCell id="Uvm_3Z7u6msLeB1A8Q9c-32" value="New_array[index] = Array[i]&amp;nbsp;&lt;br&gt;index=index+1" style="whiteSpace=wrap;html=1;" vertex="1" parent="1">
          <mxGeometry x="315" y="960" width="170" height="60" as="geometry" />
        </mxCell>
      </root>
    </mxGraphModel>
  </diagram>
</mxfile>
